<svg xmlns="http://www.w3.org/2000/svg" width="129" height="29" viewBox="0 0 129 29">
    <g fill="#333" fill-rule="evenodd">
        <g fill-rule="nonzero">
            <path d="M58.436 28.125L71.396 28.125 71.396 24.053 63.146 24.053 63.146.026 58.436.026zM75.199 4.091L95.074 4.091 95.074.026 75.199.026zM75.199 16.102L95.074 16.102 95.074 12.037 75.199 12.037zM41.966 1.879L39.638 6.761 44.441 16.969 34.781 16.969 32.884 20.951 46.733 20.951 50.19 28.118 55.26 28.118zM11.561.026L24.896 28.125 38.269.034 33.064.034 24.896 17.625 16.725.045zM102.667 28.087L107.37 28.087 107.37 4.058 117.278 4.058 117.278 0 98.959 0 98.959 4.061 102.667 4.061zM7.833.026L0 3.551 0 7.496 3.72 5.678 3.72 28.118 8.01 28.118 8.01.026zM75.199 28.125L95.074 28.125 95.074 24.052 75.199 24.052z"/>
        </g>
        <text font-family="Avenir-Heavy, Avenir" font-size="4" font-weight="600" letter-spacing="-.006">
            <tspan x="121.506" y="29">TM</tspan>
        </text>
    </g>
</svg>
